<svg xmlns="http://www.w3.org/2000/svg" viewBox="0 0 810 335" role="img" aria-label="Estados mecánicos por cascada"><style>text{font-family:Arial,Helvetica,sans-serif;fill:#17324d}.title{font-size:22px;font-weight:700}.label{font-size:14px}.small{font-size:12px;fill:#52677a}.value{font-size:13px;font-weight:700}</style><rect width="100%" height="100%" rx="18" fill="#f6f9fc"/><text x="34" y="42" class="title">Relaciones: aceptación técnica y ambigüedad · D01–D04</text><text x="34" y="66" class="small">Conteos mecánicos; aceptación técnica no equivale a verdad curricular.</text><text x="34" y="122" class="label">confidence</text><rect x="225" y="105" width="410" height="24" rx="5" fill="#e4edf3"/><rect x="225" y="105" width="0.0" height="24" rx="5" fill="#2662a6"/><rect x="225.0" y="105" width="0.0" height="24" fill="#e7ac50"/><text x="650" y="122" class="value">0 / 0 / 1</text><text x="34" y="184" class="label">structural-semantic</text><rect x="225" y="167" width="410" height="24" rx="5" fill="#e4edf3"/><rect x="225" y="167" width="410.0" height="24" rx="5" fill="#11967f"/><rect x="635.0" y="167" width="0.0" height="24" fill="#e7ac50"/><text x="650" y="184" class="value">63 / 0 / 1</text><text x="34" y="246" class="label">disagreement</text><rect x="225" y="229" width="410" height="24" rx="5" fill="#e4edf3"/><rect x="225" y="229" width="0.0" height="24" rx="5" fill="#9b58a4"/><rect x="225.0" y="229" width="410.0" height="24" fill="#e7ac50"/><text x="650" y="246" class="value">0 / 63 / 13</text><text x="34" y="313" class="small">Columnas numéricas: relaciones aceptadas / ambiguas / registros de abstención.</text></svg>
